<svg xmlns="http://www.w3.org/2000/svg" width="512" height="512" viewBox="0 0 512 512" version="1.1">
	<path d="M 222 33.608 C 202.048 35.405, 175.477 41.450, 156.360 48.543 C 142.526 53.676, 119.228 65.864, 108.088 73.797 C 90.911 86.029, 72.675 104.894, 60.629 122.895 C 45.092 146.112, 31.672 181.587, 34.366 192.321 C 35.052 195.056, 39.918 197.353, 42.736 196.271 C 43.659 195.917, 46.914 193.073, 49.968 189.951 C 57.933 181.811, 64.327 178.844, 75.242 178.222 C 80.647 177.914, 84 178.099, 84 178.705 C 84 179.245, 83.057 182.345, 81.904 185.593 C 79.240 193.103, 78.231 208.127, 80.023 213.596 C 80.820 216.030, 83.641 219.800, 87.514 223.607 C 91.509 227.535, 94.363 231.383, 95.511 234.391 C 97.386 239.301, 99.261 239.982, 99.847 235.966 C 100.420 232.030, 98.193 226.423, 93.897 220.988 C 91.663 218.163, 89.198 214.324, 88.418 212.458 C 85.967 206.593, 86.602 194.893, 90.084 181.750 L 91.077 178 97.889 178 C 101.636 178, 106.136 178.500, 107.889 179.111 L 111.077 180.222 110.399 193.923 C 109.543 211.221, 110.068 212.939, 118.500 220.387 C 123.403 224.718, 125.369 227.271, 126.710 231.046 C 128.656 236.525, 130.334 237.016, 130.808 232.245 C 131.361 226.678, 129.159 221.336, 123.976 215.664 L 119 210.220 119 197.110 C 119 182.497, 118.589 183.130, 126.500 185.553 C 130.260 186.704, 133.671 186.918, 140.251 186.413 L 149.002 185.742 148.251 189.121 C 147.838 190.979, 147.500 197.801, 147.500 204.280 L 147.500 216.060 154.250 222.516 C 159.494 227.532, 161.270 229.980, 162.208 233.486 C 162.917 236.138, 163.998 238, 164.828 238 C 165.934 238, 166.147 236.716, 165.812 232.083 C 165.484 227.548, 164.753 225.388, 162.683 222.833 C 154.003 212.126, 154.590 213.485, 154.180 203.117 C 153.971 197.828, 154.221 191.925, 154.736 190 L 155.671 186.500 162.086 186.757 C 170.343 187.088, 174.183 188.365, 181.239 193.127 C 187.702 197.489, 188.751 197.638, 197.356 195.408 C 205.388 193.326, 218.495 193.781, 222.296 196.273 L 225 198.046 225 233.523 L 225 269 221.607 269 C 217.764 269, 216.575 270.752, 217.955 274.382 C 218.531 275.896, 218.475 277.125, 217.800 277.800 C 217.159 278.441, 217.056 279.960, 217.536 281.677 C 217.970 283.230, 218.219 285.123, 218.088 285.884 C 217.568 288.914, 219.179 292.041, 222.014 293.507 L 225 295.051 225 377.609 C 225 423.016, 224.662 460.017, 224.250 459.833 C 223.838 459.650, 220.472 457.475, 216.771 455 L 210.042 450.500 210.021 431.316 L 210 412.133 212.750 411.816 C 215.147 411.541, 215.500 411.065, 215.500 408.111 C 215.500 404.905, 215.243 404.656, 210.769 403.520 C 206.851 402.525, 198.401 397.525, 190.042 391.255 C 188.654 390.214, 187.733 390.484, 184.441 392.896 C 178.530 397.225, 168.047 402.699, 163.250 403.960 C 159.303 404.997, 159 405.319, 159 408.475 C 159 411.578, 159.282 411.901, 162.250 412.187 L 165.500 412.500 165.774 429.250 L 166.048 446 162.815 447.967 C 158.287 450.720, 153.960 451.544, 152.890 449.857 C 152.418 449.111, 152.024 445.238, 152.015 441.250 C 152.003 435.507, 152.308 434, 153.481 434 C 155.138 434, 156.527 429.816, 155.639 427.502 C 155.168 426.273, 152.715 426, 142.156 426 C 127.713 426, 123.375 426.579, 122.595 428.612 C 121.743 430.833, 123.030 432.969, 125.610 433.617 C 127.599 434.116, 128 434.847, 128 437.972 C 128 441.669, 127.929 441.738, 123.470 442.349 C 117.003 443.235, 108.509 447.546, 103.195 452.637 C 99.737 455.951, 98.902 457.302, 99.775 458.175 C 101.762 460.162, 111.062 460.349, 116 458.503 C 125.742 454.860, 127.557 454.583, 133.277 455.863 C 138.305 456.988, 140.229 457.803, 148.295 462.227 C 150.906 463.658, 151.697 463.562, 160.295 460.765 C 176.590 455.463, 195.497 457.087, 213.309 465.316 L 220.515 468.646 322.507 468.264 C 378.603 468.054, 425.063 467.698, 425.750 467.473 C 431.838 465.476, 415.680 452.643, 405.199 451.150 L 400.500 450.481 400.208 443.316 C 399.930 436.506, 400.029 436.134, 402.208 435.825 C 404.059 435.563, 404.559 434.784, 404.809 431.780 L 405.117 428.061 392.344 427.780 L 379.572 427.500 378.667 424.339 C 377.945 421.817, 377.085 421.051, 374.415 420.550 C 371.196 419.946, 370.957 419.573, 368.120 410.711 C 362.584 393.416, 354 363.281, 354 361.138 C 354 359.667, 354.624 359, 356 359 C 358.842 359, 358.693 357.644, 352.926 330.969 C 347.861 307.542, 347.853 307.477, 348.538 294.750 C 348.915 287.738, 349.543 282, 349.934 282 C 350.325 282, 352.270 285.262, 354.256 289.250 C 358.322 297.415, 361.348 308.409, 363.010 321.049 C 364.083 329.208, 364.018 329.908, 361.573 336.403 C 360.164 340.146, 359.260 343.612, 359.565 344.104 C 360.459 345.551, 364.195 345.133, 366.146 343.368 C 367.834 341.840, 368.015 341.908, 368.975 344.433 C 369.539 345.917, 370.003 348.113, 370.006 349.315 C 370.009 350.517, 370.480 353.188, 371.053 355.250 C 372.224 359.467, 374.834 360.206, 378.783 357.439 C 383.432 354.183, 383.979 351.438, 383.579 333.347 C 382.989 306.612, 379.016 291.943, 364.553 263.106 C 357.643 249.328, 353.687 244.775, 346.184 241.968 C 343.071 240.803, 340.006 239.420, 339.374 238.895 C 338.741 238.370, 337.910 235.433, 337.527 232.370 C 336.893 227.296, 336.638 226.848, 334.665 227.346 C 333.474 227.647, 330.323 228.452, 327.662 229.135 C 323.061 230.316, 315.424 229.677, 307.435 227.441 C 305.570 226.919, 305.279 227.467, 304.435 233.097 L 303.500 239.331 296.636 242.098 C 292.860 243.621, 288.639 245.909, 287.254 247.183 C 285.870 248.457, 281.791 255.512, 278.190 262.861 L 271.644 276.221 258.467 275.836 L 245.291 275.451 241.396 271.476 L 237.500 267.500 237.500 232.833 C 237.500 213.766, 237.822 197.844, 238.217 197.450 C 238.611 197.056, 245.361 195.655, 253.217 194.336 C 264.397 192.459, 269.455 192.072, 276.500 192.552 C 288.608 193.379, 288.783 193.453, 290.039 198.310 C 293.188 210.494, 296.861 215.754, 301.418 214.610 C 303.600 214.062, 304.210 214.492, 305.867 217.738 C 308.612 223.117, 310.976 224.891, 317.114 226.178 C 326.405 228.127, 333.314 225.356, 337.708 217.918 C 339.184 215.419, 340.044 215, 343.698 215 C 349.772 215, 356.122 208.880, 358.474 200.759 C 360.743 192.924, 362.340 192, 373.621 192 C 381.393 192, 384.104 192.476, 391.339 195.112 L 399.881 198.224 406.191 196.023 C 410.033 194.682, 416.092 193.609, 421.687 193.278 C 429.575 192.811, 431.890 193.067, 438.051 195.086 L 445.226 197.439 447.187 195.018 C 449.453 192.219, 449.270 190.334, 445.404 176.643 C 440.387 158.878, 427.870 134.346, 415.149 117.344 C 396.968 93.047, 365.112 67.314, 337.092 54.292 C 318.964 45.866, 295.044 38.966, 272 35.516 C 261.731 33.979, 230.936 32.804, 222 33.608 M 209.500 48.521 C 185.910 52.257, 162.592 59.616, 141.500 69.982 C 112.446 84.262, 93.433 99.979, 76.147 124.005 C 72.786 128.677, 70.027 132.803, 70.018 133.174 C 70.008 133.545, 72.588 132.889, 75.750 131.715 C 79.900 130.175, 83.866 129.570, 90 129.541 C 97.338 129.506, 99.281 129.884, 104.214 132.306 C 107.374 133.858, 111.677 137.099, 113.841 139.556 C 115.992 142, 118.082 144, 118.486 144 C 118.889 144, 121.563 141.863, 124.426 139.250 C 131.551 132.750, 138.035 130.494, 149.500 130.523 C 157.205 130.543, 159.363 130.946, 164.500 133.326 C 176.166 138.729, 182.972 148.289, 182.990 159.300 C 183 165.005, 181.426 169.599, 178.203 173.274 C 177.285 174.321, 177.027 175.366, 177.574 175.826 C 178.083 176.255, 181.087 178.549, 184.249 180.924 L 189.999 185.242 194.590 181.371 C 207.012 170.897, 216.172 166.081, 228.546 163.518 C 240.380 161.067, 252.239 162.787, 267.096 169.109 C 277.356 173.475, 281.589 172.966, 290.669 166.277 C 301.966 157.954, 305.318 156.591, 314.500 156.586 C 324.122 156.581, 330.420 158.527, 339.187 164.214 C 348.144 170.024, 353.554 172.257, 356.897 171.523 C 358.436 171.185, 362.351 168.629, 365.598 165.844 C 373.574 159.001, 380.071 156.019, 387 156.022 C 399.147 156.026, 414.598 162.918, 425.663 173.266 C 430.379 177.676, 431.134 176.448, 428.594 168.500 C 425.432 158.604, 418.648 145.167, 410.925 133.503 C 383.632 92.284, 335.581 61.335, 281.903 50.402 C 269.781 47.933, 266.111 47.645, 243.500 47.384 C 225.489 47.177, 215.984 47.495, 209.500 48.521 M 252 56.274 C 252 56.975, 254.738 59.543, 258.085 61.980 C 269.323 70.163, 278.477 83.093, 284.078 98.692 C 285.893 103.748, 287.743 107.659, 288.189 107.383 C 289.668 106.469, 289.029 97.304, 287.036 90.855 C 282.010 74.587, 264.722 55, 255.390 55 C 253.310 55, 252 55.493, 252 56.274 M 287.500 288.507 C 285.300 291.490, 281.700 294.897, 279.500 296.079 C 275.627 298.160, 274.959 298.197, 258.500 297.245 C 249.150 296.704, 240.488 295.925, 239.250 295.514 L 237 294.767 237 351.183 C 237 393.730, 237.295 407.895, 238.200 408.800 C 239.055 409.655, 245.244 410, 259.700 410 L 280 410 280 414.421 C 280 418.477, 279.763 418.893, 277.122 419.473 C 274.748 419.995, 274.138 420.752, 273.633 423.803 C 272.690 429.508, 272.889 450.814, 273.892 451.433 C 274.382 451.736, 276.885 451.206, 279.453 450.254 L 284.123 448.523 283.976 443.512 C 283.753 435.904, 283.709 436, 287.465 436 C 291.789 436, 292.997 433.998, 293.008 426.816 C 293.012 423.892, 293.429 417.900, 293.935 413.500 C 294.660 407.195, 296.944 385.467, 299.295 362.500 C 299.478 360.712, 298.757 360.447, 292.500 360 L 285.500 359.500 285.696 354.490 C 285.804 351.735, 287.556 341.610, 289.589 331.990 C 292.148 319.886, 293.423 310.987, 293.733 303.093 C 294.178 291.740, 293.502 282.962, 292.189 283.042 C 291.810 283.065, 289.700 285.524, 287.500 288.507 M 324.187 363.077 C 323.694 364.410, 322.322 372.700, 321.138 381.500 C 316.143 418.612, 314.194 434.504, 314.563 435.102 C 314.779 435.451, 316.823 436.036, 319.105 436.401 L 323.255 437.064 322.731 440.972 C 322.442 443.121, 321.479 446.338, 320.590 448.121 C 319.012 451.283, 319.039 451.431, 321.673 454.181 C 323.159 455.731, 324.739 457, 325.184 457 C 325.630 457, 328.608 455.076, 331.801 452.725 C 334.995 450.374, 340.149 447.120, 343.254 445.495 L 348.899 442.539 348.308 438.234 C 347.823 434.694, 348.103 433.519, 349.882 431.626 L 352.046 429.322 349.046 422.911 C 347.396 419.385, 341.963 404.575, 336.971 390 C 331.979 375.425, 327.262 362.860, 326.489 362.077 C 325.275 360.848, 324.960 360.985, 324.187 363.077 M 181.655 413.829 C 179.719 415.968, 179.484 420.084, 181.200 421.800 C 182.481 423.081, 186.811 423.393, 189.418 422.393 C 191.327 421.660, 191.604 415.004, 189.800 413.200 C 188.007 411.407, 183.534 411.752, 181.655 413.829 M 255.500 425 C 254.466 426.673, 255.766 430.696, 257.564 431.386 C 260.311 432.440, 263.154 430.162, 262.810 427.183 C 262.556 424.985, 261.930 424.445, 259.344 424.194 C 257.608 424.025, 255.878 424.388, 255.500 425 M 181.655 429.829 C 179.679 432.012, 179.356 441.956, 181.200 443.800 C 183.154 445.754, 188.778 445.283, 189.965 443.066 C 191.514 440.171, 191.213 432.749, 189.443 430.223 C 187.555 427.527, 183.905 427.342, 181.655 429.829 M 139.389 437.430 C 138.753 439.086, 140.539 442, 142.189 442 C 143.576 442, 142.717 436.725, 141.251 436.244 C 140.563 436.018, 139.725 436.552, 139.389 437.430 M 253.571 438.571 C 252.354 439.789, 252 442.379, 252 450.071 C 252 459.724, 252.063 460, 254.268 460 C 255.515 460, 258.215 458.859, 260.268 457.464 L 264 454.928 264 447.619 C 264 441.808, 263.625 439.971, 262.171 438.655 C 259.861 436.565, 255.620 436.523, 253.571 438.571 M 381.359 442.508 C 379.999 446.052, 383.351 454.315, 385.342 452.325 C 386.474 451.193, 386.060 443.460, 384.800 442.200 C 383.188 440.588, 382.057 440.689, 381.359 442.508 M 237 451.358 C 237 457.267, 237.422 461.143, 238.112 461.569 C 239.973 462.719, 240.974 459.808, 240.885 453.500 C 240.786 446.461, 239.922 442.807, 238.222 442.241 C 237.316 441.939, 237 444.297, 237 451.358" stroke="none" fill="black" fill-rule="evenodd"/>
</svg>